<svg width="44" height="38" viewBox="0 0 44 38" fill="none" xmlns="http://www.w3.org/2000/svg">
<g clip-path="url(#clip0_472_2351)">
<path d="M22.0001 -0.25C21.4432 -0.25 20.8932 -0.129688 20.3707 0.102344L1.08633 8.80781C0.433207 9.10859 8.1656e-05 9.88203 8.1656e-05 10.75C8.1656e-05 11.618 0.433207 12.3914 1.08633 12.6922L5.06696 14.4883C3.93946 16.7055 3.30008 19.3266 3.30008 22.0852V24.5C3.30008 26.9406 2.55758 29.4586 1.76696 31.4437C1.32008 32.5609 0.811332 33.6609 0.220082 34.675C8.16584e-05 35.0445 -0.0617933 35.5258 0.0619567 35.9641C0.185707 36.4023 0.474457 36.7289 0.831957 36.8406L5.23196 38.2156C5.52071 38.3102 5.83008 38.2414 6.08446 38.0438C6.33883 37.8461 6.51758 37.5195 6.57258 37.15C7.16383 33.4719 6.86821 30.1719 6.42821 27.8086C6.20821 26.5883 5.91258 25.3422 5.50008 24.1992V22.0852C5.50008 19.4898 6.20133 17.0406 7.41821 15.0812C8.30508 13.7492 9.45321 12.675 10.8007 12.0133L21.5945 6.71094C22.1582 6.43594 22.7976 6.77969 23.0176 7.48438C23.2376 8.18906 22.9626 8.98828 22.3988 9.26328L11.6051 14.5656C10.7526 14.9867 10.0032 15.6313 9.39133 16.4219L20.3638 21.3719C20.8863 21.6039 21.4363 21.7242 21.9932 21.7242C22.5501 21.7242 23.1001 21.6039 23.6226 21.3719L42.9138 12.6922C43.567 12.4 44.0001 11.618 44.0001 10.75C44.0001 9.88203 43.567 9.10859 42.9138 8.80781L23.6295 0.102344C23.107 -0.129688 22.557 -0.25 22.0001 -0.25ZM8.80008 32.0625C8.80008 35.0961 14.7126 38.25 22.0001 38.25C29.2876 38.25 35.2001 35.0961 35.2001 32.0625L34.1482 19.5672L24.372 23.9844C23.6088 24.3281 22.8045 24.5 22.0001 24.5C21.1957 24.5 20.3845 24.3281 19.6282 23.9844L9.85196 19.5672L8.80008 32.0625Z" fill="#FF9400"/>
</g>
<defs>
<clipPath id="clip0_472_2351">
<path d="M0 -3H44V41H0V-3Z" fill="white"/>
</clipPath>
</defs>
</svg>
