<svg width="44" height="44" viewBox="0 0 44 44" fill="none" xmlns="http://www.w3.org/2000/svg">
<g clip-path="url(#clip0_472_2364)">
<path d="M15.8125 4.125H28.1875C28.5656 4.125 28.875 4.43437 28.875 4.8125V8.25H15.125V4.8125C15.125 4.43437 15.4344 4.125 15.8125 4.125ZM11 4.8125V8.25H5.5C2.46641 8.25 0 10.7164 0 13.75V22H16.5H27.5H44V13.75C44 10.7164 41.5336 8.25 38.5 8.25H33V4.8125C33 2.15703 30.843 0 28.1875 0H15.8125C13.157 0 11 2.15703 11 4.8125ZM44 24.75H27.5V27.5C27.5 29.0211 26.2711 30.25 24.75 30.25H19.25C17.7289 30.25 16.5 29.0211 16.5 27.5V24.75H0V35.75C0 38.7836 2.46641 41.25 5.5 41.25H38.5C41.5336 41.25 44 38.7836 44 35.75V24.75Z" fill="#FF9400"/>
</g>
<defs>
<clipPath id="clip0_472_2364">
<path d="M0 0H44V44H0V0Z" fill="white"/>
</clipPath>
</defs>
</svg>
