<svg width="44" height="44" viewBox="0 0 44 44" fill="none" xmlns="http://www.w3.org/2000/svg">
<path d="M8.8 29.3333V5.86667C8.8 2.63083 11.4308 0 14.6667 0H38.1333C41.3692 0 44 2.63083 44 5.86667V23.9708C44 25.5292 43.3858 27.0233 42.2858 28.1233L36.9233 33.4858C35.8233 34.5858 34.3292 35.2 32.7708 35.2H14.6667C11.4308 35.2 8.8 32.5692 8.8 29.3333ZM24.9333 8.8C24.1267 8.8 23.4667 9.46 23.4667 10.2667V14.6667H19.0667C18.26 14.6667 17.6 15.3267 17.6 16.1333V19.0667C17.6 19.8733 18.26 20.5333 19.0667 20.5333H23.4667V24.9333C23.4667 25.74 24.1267 26.4 24.9333 26.4H27.8667C28.6733 26.4 29.3333 25.74 29.3333 24.9333V20.5333H33.7333C34.54 20.5333 35.2 19.8733 35.2 19.0667V16.1333C35.2 15.3267 34.54 14.6667 33.7333 14.6667H29.3333V10.2667C29.3333 9.46 28.6733 8.8 27.8667 8.8H24.9333ZM27.1333 39.6C28.3525 39.6 29.3333 40.5808 29.3333 41.8C29.3333 43.0192 28.3525 44 27.1333 44H12.4667C5.5825 44 0 38.4175 0 31.5333V11C0 9.78083 0.980833 8.8 2.2 8.8C3.41917 8.8 4.4 9.78083 4.4 11V31.5333C4.4 35.9883 8.01167 39.6 12.4667 39.6H27.1333Z" fill="#FF9400"/>
</svg>
