<svg width="44" height="44" viewBox="0 0 44 44" fill="none" xmlns="http://www.w3.org/2000/svg">
<path d="M11.3057 6.58281C11.3057 2.94766 13.9258 0 17.1571 0C18.7078 0 20.1974 0.696094 21.2898 1.925L22.0002 2.72422L22.7107 1.925C23.803 0.696094 25.2926 0 26.8433 0C30.0746 0 32.6948 2.94766 32.6948 6.58281C32.6948 8.32734 32.076 10.0031 30.9837 11.232L23.0773 20.118C22.4815 20.7883 21.5113 20.7883 20.9155 20.118L13.0168 11.232C11.9244 10.0031 11.3057 8.32734 11.3057 6.58281ZM43.4046 28.9008C44.4053 30.4305 44.1151 32.5789 42.7553 33.7047L33.0844 41.7227C31.2969 43.2008 29.1427 44 26.9197 44H14.6668H2.44447C1.09237 44 0 42.7711 0 41.25V35.75C0 34.2289 1.09237 33 2.44447 33H5.25561L8.68551 29.9062C10.4196 28.3422 12.5737 27.5 14.7967 27.5H20.778H22.0002H26.8892C28.2413 27.5 29.3337 28.7289 29.3337 30.25C29.3337 31.7711 28.2413 33 26.8892 33H22.0002H20.778C20.1058 33 19.5558 33.6188 19.5558 34.375C19.5558 35.1312 20.1058 35.75 20.778 35.75H29.9906L39.1345 28.1703C40.4942 27.0445 42.4039 27.3711 43.4046 28.9008ZM14.7891 33H14.7203C14.7432 33 14.7661 33 14.7891 33Z" fill="#FF9400"/>
</svg>
