<svg width="35" height="49" viewBox="0 0 35 49" fill="none" xmlns="http://www.w3.org/2000/svg">
<path d="M0 24.3702L2.59766 2.6655C2.77995 1.14236 4.01953 0 5.49609 0H20.8633C22.2305 0 23.3333 1.15187 23.3333 2.57982C23.3333 2.88445 23.2786 3.19859 23.1784 3.48418L18.9583 15.2314H31.6549C33.4961 15.2314 35 16.7926 35 18.7251C35 19.4296 34.7995 20.115 34.4167 20.6957L16.8984 47.4458C16.3607 48.2645 15.4766 48.75 14.5378 48.75H14.2734C12.8424 48.75 11.6758 47.5315 11.6758 46.0369C11.6758 45.818 11.7031 45.599 11.7578 45.3801L16.0417 27.4165H2.91667C1.30339 27.4165 0 26.0552 0 24.3702Z" fill="#FF9400"/>
</svg>
