<svg width="44" height="36" viewBox="0 0 44 36" fill="none" xmlns="http://www.w3.org/2000/svg">
<g clip-path="url(#clip0_472_2416)">
<path d="M22 0C22.7293 0 23.4288 0.296316 23.9445 0.823762C24.4603 1.35121 24.75 2.06658 24.75 2.8125C24.75 3.55842 24.4603 4.27379 23.9445 4.80124C23.4288 5.32868 22.7293 5.625 22 5.625C21.2707 5.625 20.5712 5.32868 20.0555 4.80124C19.5397 4.27379 19.25 3.55842 19.25 2.8125C19.25 2.06658 19.5397 1.35121 20.0555 0.823762C20.5712 0.296316 21.2707 0 22 0ZM25.0731 11.5523L25.8363 17.7891C25.9462 18.7172 25.3069 19.5539 24.4062 19.6734C23.5056 19.793 22.6806 19.132 22.5638 18.2109L22.2612 15.75H21.7388L21.4362 18.2109C21.3263 19.1391 20.5013 19.793 19.5938 19.6734C18.6863 19.5539 18.0469 18.7172 18.1638 17.7891L18.9269 11.5453L17.5656 12.7266C16.8713 13.3313 15.8263 13.2398 15.2419 12.5297C14.6575 11.8195 14.74 10.7508 15.4344 10.1531L17.3525 8.49375C18.6519 7.36875 20.3019 6.75 22 6.75C23.6981 6.75 25.3481 7.36875 26.6475 8.48672L28.5656 10.1461C29.26 10.7508 29.3494 11.8125 28.7581 12.5227C28.1669 13.2328 27.1287 13.3242 26.4344 12.7195L25.0731 11.5453V11.5523ZM2.75 4.5C4.26938 4.5 5.5 5.75859 5.5 7.3125V10.125V15.75V18.5766C5.5 19.7719 5.96062 20.918 6.78562 21.7617L10.2988 25.3547C10.8694 25.9383 11.7631 26.0297 12.43 25.5727C13.3169 24.968 13.4406 23.6812 12.6844 22.9148L11.6394 21.8461L9.43938 19.5961C8.58 18.7172 8.58 17.2898 9.43938 16.4109C10.2988 15.532 11.6944 15.532 12.5538 16.4109L14.7538 18.6609L15.7988 19.7297L17.5381 21.5086C18.9819 22.9852 19.7931 24.9891 19.7931 27.0773V32.625C19.7931 34.4883 18.315 36 16.4931 36H11.9144C10.7456 36 9.625 35.5289 8.8 34.6852L1.93188 27.6609C0.694375 26.3953 0 24.6797 0 22.8867V15.75V11.25V7.3125C0 5.75859 1.23063 4.5 2.75 4.5ZM41.25 4.5C42.7694 4.5 44 5.75859 44 7.3125V11.25V15.75V22.8867C44 24.6797 43.3056 26.3953 42.0681 27.6609L35.2 34.6852C34.375 35.5289 33.2544 36 32.0856 36H27.5C25.6781 36 24.2 34.4883 24.2 32.625V27.0773C24.2 24.9891 25.0112 22.9852 26.455 21.5086L28.1944 19.7297L29.2394 18.6609L31.4394 16.4109C32.2987 15.532 33.6944 15.532 34.5538 16.4109C35.4131 17.2898 35.4131 18.7172 34.5538 19.5961L32.3538 21.8461L31.3088 22.9148C30.5525 23.6883 30.6763 24.968 31.5631 25.5727C32.23 26.0297 33.1238 25.9383 33.6944 25.3547L37.2075 21.7617C38.0325 20.918 38.4931 19.7719 38.4931 18.5766V15.75V10.125V7.3125C38.4931 5.75859 39.7238 4.5 41.2431 4.5H41.25Z" fill="#FF9400"/>
</g>
<defs>
<clipPath id="clip0_472_2416">
<path d="M0 0H44V36H0V0Z" fill="white"/>
</clipPath>
</defs>
</svg>
