<svg width="44" height="44" viewBox="0 0 44 44" fill="none" xmlns="http://www.w3.org/2000/svg">
<g clip-path="url(#clip0_472_2442)">
<path d="M13.4579 33.0771L10.8024 30.4216C10.072 29.6912 9.81415 28.6341 10.1407 27.6544C10.3985 26.8896 10.7423 25.8927 11.1548 24.7498H2.06258C1.32352 24.7498 0.636021 24.3545 0.26649 23.7099C-0.103042 23.0654 -0.0944479 22.2748 0.283677 21.6388L4.7954 14.0334C5.91258 12.1513 7.93211 10.9998 10.1149 10.9998H17.1876C17.3938 10.656 17.6001 10.338 17.8063 10.0287C24.8446 -0.352582 35.329 -0.696331 41.5852 0.455231C42.5821 0.6357 43.3556 1.41773 43.5446 2.41461C44.6962 8.67945 44.3438 19.1552 33.9712 26.1935C33.6704 26.3998 33.3438 26.606 33.0001 26.8123V33.8849C33.0001 36.0677 31.8485 38.0959 29.9665 39.2045L22.361 43.7162C21.7251 44.0943 20.9345 44.1029 20.2899 43.7334C19.6454 43.3638 19.2501 42.6849 19.2501 41.9373V32.7248C18.0384 33.1459 16.9813 33.4896 16.1821 33.7474C15.2196 34.0568 14.1712 33.7904 13.4493 33.0771H13.4579ZM33.0001 14.4373C33.9118 14.4373 34.7861 14.0751 35.4308 13.4304C36.0754 12.7858 36.4376 11.9114 36.4376 10.9998C36.4376 10.0881 36.0754 9.21374 35.4308 8.56908C34.7861 7.92443 33.9118 7.56226 33.0001 7.56226C32.0884 7.56226 31.2141 7.92443 30.5694 8.56908C29.9247 9.21374 29.5626 10.0881 29.5626 10.9998C29.5626 11.9114 29.9247 12.7858 30.5694 13.4304C31.2141 14.0751 32.0884 14.4373 33.0001 14.4373Z" fill="#FF9400"/>
</g>
<defs>
<clipPath id="clip0_472_2442">
<path d="M0 0H44V44H0V0Z" fill="white"/>
</clipPath>
</defs>
</svg>
