<svg width="43" height="34" viewBox="0 0 43 34" fill="none" xmlns="http://www.w3.org/2000/svg">
<path d="M10.75 4.25C10.75 1.90586 12.6783 0 15.05 0H38.7C41.0717 0 43 1.90586 43 4.25V23.375C43 25.7191 41.0717 27.625 38.7 27.625H22.6287C21.8359 25.9316 20.6198 24.4707 19.1081 23.375H25.8V21.25C25.8 20.0746 26.7608 19.125 27.95 19.125H32.25C33.4392 19.125 34.4 20.0746 34.4 21.25V23.375H38.7V4.25H15.05V7.51055C13.7869 6.78672 12.3155 6.375 10.75 6.375V4.25ZM10.75 8.5C11.597 8.5 12.4358 8.6649 13.2183 8.98527C14.0009 9.30564 14.7119 9.77522 15.3108 10.3672C15.9098 10.9592 16.3849 11.6619 16.709 12.4354C17.0332 13.2088 17.2 14.0378 17.2 14.875C17.2 15.7122 17.0332 16.5412 16.709 17.3146C16.3849 18.0881 15.9098 18.7908 15.3108 19.3828C14.7119 19.9748 14.0009 20.4444 13.2183 20.7647C12.4358 21.0851 11.597 21.25 10.75 21.25C9.90297 21.25 9.06424 21.0851 8.28169 20.7647C7.49914 20.4444 6.7881 19.9748 6.18916 19.3828C5.59022 18.7908 5.11512 18.0881 4.79098 17.3146C4.46683 16.5412 4.3 15.7122 4.3 14.875C4.3 14.0378 4.46683 13.2088 4.79098 12.4354C5.11512 11.6619 5.59022 10.9592 6.18916 10.3672C6.7881 9.77522 7.49914 9.30564 8.28169 8.98527C9.06424 8.6649 9.90297 8.5 10.75 8.5ZM8.95609 23.375H12.5372C17.4889 23.375 21.5 27.3395 21.5 32.227C21.5 33.2031 20.7005 34 19.7061 34H1.79391C0.799531 34 0 33.2098 0 32.227C0 27.3395 4.01109 23.375 8.95609 23.375Z" fill="#FF9400"/>
</svg>
