<svg width="20" height="22" viewBox="0 0 20 22" fill="none" xmlns="http://www.w3.org/2000/svg">
<path d="M4.333 5.98772C7.34 6.51772 9.132 7.62672 9.75 8.26372C10.368 7.62672 12.16 6.51772 15.168 5.98772C16.691 5.71872 17.453 5.58472 18.101 6.09972C18.75 6.61372 18.75 7.44972 18.75 9.12172V15.1287C18.75 16.6577 18.75 17.4217 18.334 17.8987C17.917 18.3757 17.001 18.5377 15.168 18.8607C13.533 19.1487 12.258 19.6077 11.335 20.0687C10.426 20.5227 9.972 20.7497 9.75 20.7497M9.75 20.7497C9.528 20.7497 9.073 20.5227 8.165 20.0697C7.242 19.6077 5.967 19.1487 4.333 18.8597C2.499 18.5377 1.583 18.3757 1.166 17.8987C0.749 17.4217 0.75 16.6577 0.75 15.1287V9.12172C0.75 7.44972 0.75 6.61372 1.399 6.09972C2.047 5.58472 2.809 5.71972 4.332 5.98772M9.75 20.7497V7.74972M6.25 1.80872C7.28651 1.11672 8.50524 0.748226 9.75152 0.750006C10.9978 0.751787 12.2155 1.12376 13.25 1.81872M11.372 4.24972C10.8834 3.9529 10.3231 3.79511 9.75139 3.79334C9.17972 3.79158 8.61841 3.94592 8.128 4.23972" stroke="#7C8493" stroke-width="1.5" stroke-linecap="round" stroke-linejoin="round"/>
</svg>
