<svg width="24" height="24" viewBox="0 0 24 24" fill="none" xmlns="http://www.w3.org/2000/svg">
<path d="M12 15.7495C14.0711 15.7495 15.75 14.0706 15.75 11.9995C15.75 9.92844 14.0711 8.24951 12 8.24951C9.92893 8.24951 8.25 9.92844 8.25 11.9995C8.25 14.0706 9.92893 15.7495 12 15.7495Z" stroke="#4F5665" stroke-width="1.5" stroke-linecap="round" stroke-linejoin="round"/>
<path d="M16.9779 19.4997C15.3071 20.6086 13.3137 21.1278 11.3142 20.9748C9.31468 20.8218 7.42351 20.0055 5.94076 18.6553C4.45802 17.3052 3.46863 15.4985 3.12959 13.522C2.79054 11.5455 3.12126 9.51242 4.06927 7.74529C5.01728 5.97816 6.52827 4.57822 8.3625 3.76762C10.1967 2.95702 12.2491 2.78217 14.194 3.27083C16.139 3.75949 17.865 4.88366 19.0982 6.46497C20.3315 8.04628 21.0014 9.99416 21.0015 11.9995C21.0015 14.0706 20.2515 15.7495 18.3765 15.7495C16.5015 15.7495 15.7515 14.0706 15.7515 11.9995V8.24952" stroke="#4F5665" stroke-width="1.5" stroke-linecap="round" stroke-linejoin="round"/>
</svg>
