<svg width="24" height="24" viewBox="0 0 24 24" fill="none" xmlns="http://www.w3.org/2000/svg">
<mask id="mask0_303698_133403" style="mask-type:luminance" maskUnits="userSpaceOnUse" x="0" y="0" width="24" height="24">
<path d="M0 0H24V24H0V0Z" fill="white"/>
<path fill-rule="evenodd" clip-rule="evenodd" d="M5.78346 12.3897C5.65764 12.2585 5.5589 12.1037 5.49289 11.9342C5.42688 11.7648 5.39489 11.584 5.39875 11.4022C5.40261 11.2204 5.44223 11.0412 5.51537 10.8747C5.58851 10.7082 5.69372 10.5577 5.825 10.4319C5.95628 10.3061 6.11106 10.2073 6.2805 10.1413C6.44994 10.0753 6.63072 10.0433 6.81253 10.0472C6.99433 10.051 7.17359 10.0907 7.34008 10.1638C7.50657 10.2369 7.65702 10.3422 7.78285 10.4734L10.337 13.1393C10.3789 13.183 10.4119 13.2346 10.4339 13.2911C10.4559 13.3476 10.4665 13.4079 10.4652 13.4685C10.464 13.5291 10.4507 13.5888 10.4264 13.6443C10.402 13.6998 10.3669 13.75 10.3232 13.7919C10.2794 13.8338 10.2278 13.8668 10.1713 13.8888C10.1148 13.9108 10.0546 13.9214 9.99398 13.9201C9.93338 13.9189 9.87363 13.9056 9.81813 13.8813C9.76263 13.8569 9.71248 13.8218 9.67054 13.7781L7.11639 11.1122C7.03168 11.0238 6.91534 10.9727 6.79295 10.9701C6.67056 10.9675 6.55215 11.0137 6.46377 11.0984C6.37539 11.1831 6.32428 11.2994 6.32169 11.4218C6.31909 11.5442 6.36522 11.6626 6.44992 11.751L9.00408 14.4168C9.08878 14.5052 9.13491 14.6236 9.13232 14.746C9.12972 14.8684 9.07861 14.9847 8.99023 15.0694C8.90185 15.1541 8.78345 15.2003 8.66106 15.1977C8.53867 15.1951 8.42232 15.144 8.33762 15.0556L5.78346 12.3897Z" fill="black"/>
<path fill-rule="evenodd" clip-rule="evenodd" d="M6.48 10.4459C6.35046 10.3154 6.24821 10.1604 6.17923 9.98994C6.11025 9.81948 6.07592 9.63698 6.07823 9.4531C6.08055 9.26922 6.11948 9.08765 6.19273 8.91898C6.26599 8.75031 6.37211 8.59792 6.5049 8.4707C6.63769 8.34349 6.79449 8.24401 6.96615 8.17805C7.13781 8.1121 7.32088 8.081 7.50469 8.08657C7.6885 8.09214 7.86936 8.13428 8.03671 8.2105C8.20405 8.28673 8.35454 8.39553 8.47938 8.53056L11.0335 11.1964C11.0755 11.2402 11.1084 11.2918 11.1304 11.3482C11.1524 11.4047 11.1631 11.465 11.1618 11.5256C11.1605 11.5862 11.1473 11.6459 11.1229 11.7014C11.0985 11.7569 11.0635 11.8071 11.0197 11.849C10.9759 11.891 10.9243 11.9239 10.8679 11.9459C10.8114 11.9679 10.7511 11.9785 10.6905 11.9773C10.6299 11.976 10.5702 11.9628 10.5147 11.9384C10.4592 11.914 10.409 11.8789 10.3671 11.8352L7.81292 9.1684C7.77098 9.12464 7.72083 9.08957 7.66533 9.06519C7.60984 9.04081 7.55008 9.0276 7.48948 9.02632C7.42888 9.02503 7.36862 9.0357 7.31214 9.0577C7.25566 9.0797 7.20407 9.11261 7.16031 9.15456C7.11655 9.1965 7.08148 9.24665 7.0571 9.30215C7.03272 9.35764 7.01951 9.4174 7.01822 9.478C7.01694 9.5386 7.0276 9.59886 7.0496 9.65534C7.07161 9.71182 7.10452 9.76341 7.14646 9.80717L9.70062 12.473C9.78532 12.5614 9.83145 12.6798 9.82885 12.8022C9.82626 12.9246 9.77515 13.0409 9.68677 13.1256C9.59839 13.2103 9.47998 13.2565 9.35759 13.2539C9.2352 13.2513 9.11886 13.2002 9.03415 13.1118L6.48 10.4459Z" fill="black"/>
<path fill-rule="evenodd" clip-rule="evenodd" d="M8.45266 9.83461C8.32311 9.70409 8.22087 9.54908 8.15189 9.37861C8.08291 9.20815 8.04857 9.02565 8.05089 8.84177C8.05321 8.65789 8.09213 8.47632 8.16539 8.30765C8.23864 8.13898 8.34476 7.98659 8.47755 7.85938C8.61035 7.73216 8.76715 7.63268 8.93881 7.56672C9.11046 7.50077 9.29354 7.46967 9.47735 7.47525C9.66116 7.48082 9.84201 7.52295 10.0094 7.59918C10.1767 7.6754 10.3272 7.78421 10.452 7.91923L13.3283 10.9202C13.3703 10.964 13.4032 11.0156 13.4252 11.0722C13.4472 11.1287 13.4578 11.189 13.4565 11.2497C13.4551 11.3103 13.4419 11.3701 13.4174 11.4256C13.393 11.4811 13.3579 11.5313 13.314 11.5732C13.2702 11.6152 13.2186 11.6481 13.162 11.6701C13.1055 11.692 13.0452 11.7027 12.9845 11.7013C12.9239 11.7 12.8641 11.6867 12.8086 11.6623C12.7531 11.6379 12.7029 11.6027 12.661 11.5589L9.78558 8.558C9.74364 8.51424 9.69349 8.47917 9.63799 8.45479C9.58249 8.43041 9.52274 8.4172 9.46214 8.41591C9.40154 8.41463 9.34128 8.42529 9.2848 8.44729C9.22832 8.4693 9.17672 8.50221 9.13296 8.54415C9.0892 8.58609 9.05413 8.63624 9.02975 8.69174C9.00537 8.74724 8.99217 8.80699 8.99088 8.86759C8.98959 8.92819 9.00026 8.98845 9.02226 9.04493C9.04426 9.10141 9.07718 9.15301 9.11912 9.19677L11.6733 11.8626C11.7177 11.9059 11.7529 11.9576 11.7769 12.0147C11.8008 12.0719 11.8131 12.1333 11.8128 12.1953C11.8125 12.2572 11.7998 12.3185 11.7753 12.3755C11.7508 12.4324 11.7151 12.4838 11.6704 12.5267C11.6256 12.5695 11.5727 12.6029 11.5147 12.6249C11.4567 12.6468 11.395 12.6569 11.333 12.6544C11.2711 12.652 11.2103 12.6371 11.1543 12.6106C11.0982 12.5842 11.0481 12.5467 11.0068 12.5005L8.45266 9.83461Z" fill="black"/>
<path fill-rule="evenodd" clip-rule="evenodd" d="M12.222 9.64789C12.1487 9.29395 12.2081 8.92541 12.389 8.61247C12.5699 8.29954 12.8596 8.06407 13.2029 7.95094C13.5462 7.8378 13.9191 7.8549 14.2506 7.99897C14.5821 8.14304 14.849 8.40402 15.0005 8.73219L15.6928 10.2368C15.7181 10.292 15.7322 10.3516 15.7345 10.4122C15.7367 10.4728 15.727 10.5333 15.7059 10.5902C15.6847 10.647 15.6526 10.6992 15.6113 10.7436C15.57 10.7881 15.5204 10.824 15.4652 10.8493C15.4101 10.8745 15.3505 10.8887 15.2899 10.891C15.2292 10.8932 15.1688 10.8835 15.1119 10.8623C15.055 10.8412 15.0029 10.8091 14.9584 10.7678C14.9139 10.7265 14.8781 10.6769 14.8528 10.6217L14.1623 9.11619C14.1065 8.99259 14.007 8.89398 13.8829 8.83938C13.7587 8.78477 13.6188 8.77802 13.49 8.82042C13.3612 8.86282 13.2526 8.95138 13.1852 9.06905C13.1177 9.18671 13.0962 9.32516 13.1248 9.45773L13.4903 11.2042C13.5027 11.2635 13.5032 11.3247 13.492 11.3843C13.4807 11.4438 13.4578 11.5006 13.4246 11.5513C13.3913 11.602 13.3485 11.6456 13.2984 11.6798C13.2483 11.7139 13.192 11.7378 13.1326 11.7502C13.0733 11.7626 13.0121 11.7631 12.9525 11.7518C12.893 11.7405 12.8362 11.7176 12.7855 11.6844C12.7348 11.6512 12.6912 11.6083 12.6571 11.5582C12.6229 11.5082 12.599 11.4518 12.5866 11.3925L12.222 9.64789Z" fill="black"/>
<path fill-rule="evenodd" clip-rule="evenodd" d="M7.10266 15.7671C7.14642 15.7252 7.19801 15.6923 7.25449 15.6703C7.31097 15.6483 7.37123 15.6376 7.43183 15.6389C7.49244 15.6402 7.55219 15.6534 7.60769 15.6778C7.66318 15.7021 7.71333 15.7372 7.75527 15.781L9.98081 18.1034C10.3113 18.4478 10.7082 18.7219 11.1476 18.9093L11.179 18.9231C11.6177 19.1103 12.0908 19.2034 12.5678 19.1966C13.0447 19.1897 13.515 19.0831 13.9482 18.8834L14.0765 18.8244C14.538 18.6121 14.9599 18.3259 15.3254 17.9751L15.4427 17.8616C15.9349 17.3902 16.275 16.7824 16.4194 16.1163C16.5639 15.4502 16.5059 14.7561 16.2531 14.1231L14.8473 10.6062C14.8017 10.4925 14.8032 10.3654 14.8515 10.2527C14.8997 10.1401 14.9906 10.0513 15.1044 10.0058C15.2181 9.96022 15.3452 9.96172 15.4578 10.0099C15.5704 10.0581 15.6593 10.1491 15.7048 10.2628L17.1097 13.7798C17.4304 14.5837 17.5039 15.465 17.3207 16.3109C17.1375 17.1569 16.706 17.9289 16.0814 18.5281L15.9642 18.6407C15.5233 19.062 15.0159 19.4075 14.4624 19.6634L14.334 19.7225C13.7838 19.9759 13.1866 20.1112 12.5809 20.1198C11.9751 20.1284 11.3743 20.0101 10.8171 19.7724L10.7857 19.7585C10.2313 19.5233 9.73064 19.1775 9.31435 18.7422L7.08974 16.4198C7.04773 16.3761 7.01474 16.3245 6.99266 16.2681C6.97058 16.2116 6.95983 16.1514 6.96103 16.0908C6.96223 16.0302 6.97535 15.9704 6.99965 15.9149C7.02396 15.8593 7.05896 15.8091 7.10266 15.7671Z" fill="black"/>
<path fill-rule="evenodd" clip-rule="evenodd" d="M5.72878 14.9998C5.47466 14.7347 5.33627 14.3794 5.34406 14.0123C5.35185 13.6451 5.50518 13.2961 5.77031 13.0419C6.03545 12.7878 6.39067 12.6494 6.75784 12.6572C7.12501 12.665 7.47404 12.8183 7.72816 13.0835L9.0057 14.4164C9.04764 14.4602 9.08055 14.5118 9.10256 14.5682C9.12456 14.6247 9.13522 14.685 9.13394 14.7456C9.13265 14.8062 9.11944 14.8659 9.09506 14.9214C9.07068 14.9769 9.03561 15.0271 8.99185 15.069C8.94809 15.111 8.8965 15.1439 8.84002 15.1659C8.78354 15.1879 8.72328 15.1985 8.66268 15.1973C8.60208 15.196 8.54232 15.1828 8.48683 15.1584C8.43133 15.134 8.38118 15.0989 8.33924 15.0552L7.0617 13.7223C6.97699 13.6339 6.86065 13.5828 6.73826 13.5802C6.61587 13.5776 6.49746 13.6237 6.40908 13.7084C6.32071 13.7931 6.2696 13.9095 6.267 14.0318C6.2644 14.1542 6.31053 14.2726 6.39524 14.361L8.95031 17.0269C8.99226 17.0706 9.02517 17.1222 9.04717 17.1787C9.06917 17.2352 9.07984 17.2954 9.07855 17.356C9.07727 17.4166 9.06406 17.4764 9.03968 17.5319C9.0153 17.5874 8.98023 17.6375 8.93647 17.6795C8.89271 17.7214 8.84111 17.7543 8.78463 17.7763C8.72815 17.7983 8.66789 17.809 8.60729 17.8077C8.54669 17.8064 8.48694 17.7932 8.43144 17.7688C8.37595 17.7445 8.3258 17.7094 8.28385 17.6656L5.72878 14.9998ZM10.4245 9.22133C10.2949 9.09081 10.1927 8.9358 10.1237 8.76533C10.0547 8.59487 10.0204 8.41237 10.0227 8.22849C10.025 8.04461 10.0639 7.86304 10.1372 7.69437C10.2105 7.5257 10.3166 7.37331 10.4494 7.24609C10.5822 7.11888 10.739 7.0194 10.9106 6.95344C11.0823 6.88749 11.2654 6.85639 11.4492 6.86196C11.633 6.86754 11.8138 6.90967 11.9812 6.98589C12.1485 7.06212 12.299 7.17092 12.4239 7.30595L12.8706 7.77302C12.915 7.81626 12.9503 7.868 12.9742 7.92516C12.9982 7.98231 13.0104 8.0437 13.0101 8.10568C13.0099 8.16765 12.9971 8.22894 12.9727 8.28588C12.9482 8.34282 12.9125 8.39425 12.8677 8.4371C12.823 8.47995 12.77 8.51335 12.712 8.53529C12.6541 8.55724 12.5923 8.56729 12.5304 8.56484C12.4684 8.56239 12.4076 8.5475 12.3516 8.52105C12.2956 8.49459 12.2454 8.45712 12.2042 8.41087L11.7574 7.94472C11.7154 7.90096 11.6653 7.86588 11.6098 7.84151C11.5543 7.81713 11.4946 7.80392 11.434 7.80263C11.3734 7.80135 11.3131 7.81201 11.2566 7.83401C11.2001 7.85602 11.1485 7.88893 11.1048 7.93087C11.061 7.97281 11.0259 8.02296 11.0016 8.07846C10.9772 8.13395 10.964 8.19371 10.9627 8.25431C10.9614 8.31491 10.9721 8.37517 10.9941 8.43165C11.0161 8.48813 11.049 8.53972 11.0909 8.58348L12.3675 9.91641C12.4095 9.96017 12.4424 10.0118 12.4644 10.0682C12.4864 10.1247 12.4971 10.185 12.4958 10.2456C12.4945 10.3062 12.4813 10.3659 12.4569 10.4214C12.4325 10.4769 12.3975 10.5271 12.3537 10.569C12.3099 10.611 12.2583 10.6439 12.2019 10.6659C12.1454 10.6879 12.0851 10.6985 12.0245 10.6973C11.9639 10.696 11.9042 10.6828 11.8487 10.6584C11.7932 10.634 11.743 10.5989 11.7011 10.5552L10.4245 9.22133ZM14.3337 9.13179C14.2096 8.78908 14.2227 8.41168 14.3703 8.07841C14.5179 7.74514 14.7886 7.48178 15.1257 7.34334C15.4629 7.2049 15.8405 7.20208 16.1797 7.33547C16.5189 7.46886 16.7935 7.72815 16.946 8.05918L17.6651 9.62564C17.7161 9.73703 17.7208 9.86414 17.6782 9.97899C17.6355 10.0939 17.5489 10.1871 17.4375 10.2381C17.3262 10.2891 17.199 10.2938 17.0842 10.2512C16.9693 10.2085 16.8761 10.122 16.8251 10.0106L16.1069 8.4441C16.0532 8.3306 15.958 8.24205 15.8409 8.1967C15.7238 8.15135 15.5938 8.15267 15.4776 8.20038C15.3615 8.2481 15.2681 8.33857 15.2167 8.45313C15.1653 8.5677 15.1598 8.69762 15.2014 8.8161L15.7654 10.3696C15.8073 10.4847 15.8017 10.6117 15.7499 10.7226C15.6982 10.8336 15.6045 10.9195 15.4894 10.9613C15.3743 11.0032 15.2473 10.9976 15.1364 10.9459C15.0254 10.8941 14.9396 10.8004 14.8977 10.6853L14.3337 9.13179Z" fill="black"/>
<path fill-rule="evenodd" clip-rule="evenodd" d="M17.0786 9.39201C17.1922 9.3465 17.3192 9.34797 17.4318 9.39609C17.5443 9.44421 17.6331 9.53505 17.6786 9.64862L19.0835 13.1655C19.4045 13.9696 19.478 14.8511 19.2948 15.6972C19.1116 16.5433 18.68 17.3155 18.0552 17.9148L17.962 18.0043C17.5055 18.4406 16.9799 18.7984 16.4066 19.0631L16.294 19.1148C15.9905 19.2539 15.6775 19.3694 15.3562 19.46L14.2909 19.7609C14.2326 19.7774 14.1715 19.7821 14.1113 19.775C14.0511 19.7678 13.9929 19.7489 13.94 19.7192C13.8871 19.6895 13.8406 19.6498 13.8031 19.6021C13.7656 19.5545 13.7378 19.4999 13.7214 19.4415C13.705 19.3832 13.7002 19.3221 13.7074 19.2619C13.7145 19.2017 13.7335 19.1435 13.7631 19.0906C13.7928 19.0377 13.8326 18.9912 13.8802 18.9537C13.9279 18.9162 13.9824 18.8884 14.0408 18.872L15.1051 18.572C15.3814 18.4945 15.6491 18.396 15.9082 18.2766L16.0208 18.224C16.5008 18.0024 16.9409 17.703 17.3232 17.3379L17.4174 17.2483C17.9091 16.7763 18.2488 16.1684 18.3931 15.5022C18.5373 14.8361 18.4794 14.142 18.2269 13.5089L16.8211 9.99201C16.7986 9.9357 16.7874 9.87551 16.7882 9.81488C16.7889 9.75425 16.8016 9.69436 16.8255 9.63864C16.8495 9.58292 16.8841 9.53246 16.9275 9.49014C16.971 9.44782 17.0223 9.41448 17.0786 9.39201ZM6.66447 3.77139C6.76573 3.7028 6.89007 3.67721 7.01018 3.70023C7.1303 3.72325 7.23636 3.793 7.30509 3.89416L8.41832 5.53539C8.48171 5.63666 8.50336 5.75856 8.47872 5.87547C8.45408 5.99237 8.38507 6.09516 8.2862 6.16223C8.18733 6.2293 8.06631 6.25542 7.94858 6.23509C7.83085 6.21476 7.72559 6.14958 7.65493 6.05324L6.54078 4.41293C6.50667 4.36276 6.48279 4.30636 6.47051 4.24695C6.45822 4.18754 6.45776 4.12629 6.46916 4.06671C6.48057 4.00712 6.5036 3.95037 6.53696 3.8997C6.57031 3.84903 6.61425 3.80543 6.66447 3.77139ZM14.0555 3.74278C13.9466 3.68732 13.8201 3.67736 13.7038 3.71508C13.5875 3.75281 13.4909 3.83514 13.4352 3.94401L12.598 5.58432C12.5683 5.63845 12.5497 5.698 12.5434 5.75944C12.5371 5.82087 12.5432 5.88295 12.5614 5.94199C12.5795 6.00102 12.6093 6.05582 12.649 6.10313C12.6887 6.15044 12.7375 6.18931 12.7925 6.21742C12.8475 6.24553 12.9075 6.26232 12.9691 6.2668C13.0307 6.27127 13.0926 6.26334 13.1511 6.24346C13.2095 6.22359 13.2634 6.19219 13.3096 6.15111C13.3557 6.11003 13.3931 6.06011 13.4195 6.00432L14.2568 4.36308C14.3122 4.25412 14.3222 4.12761 14.2845 4.01131C14.2467 3.89501 14.1644 3.79843 14.0555 3.74278ZM10.4399 3.23047C10.5623 3.23047 10.6797 3.2791 10.7662 3.36565C10.8528 3.45221 10.9014 3.5696 10.9014 3.69201V5.33231C10.9014 5.45472 10.8528 5.57212 10.7662 5.65867C10.6797 5.74523 10.5623 5.79385 10.4399 5.79385C10.3174 5.79385 10.2001 5.74523 10.1135 5.65867C10.0269 5.57212 9.97832 5.45472 9.97832 5.33231V3.69201C9.97832 3.5696 10.0269 3.45221 10.1135 3.36565C10.2001 3.2791 10.3174 3.23047 10.4399 3.23047Z" fill="black"/>
</mask>
<g mask="url(#mask0_303698_133403)">
<path d="M12 24C18.6274 24 24 18.6274 24 12C24 5.37258 18.6274 0 12 0C5.37258 0 0 5.37258 0 12C0 18.6274 5.37258 24 12 24Z" fill="#3E6C2B"/>
</g>
</svg>
