<svg width="45" height="62" viewBox="0 0 45 62" fill="none" xmlns="http://www.w3.org/2000/svg">
<path fill-rule="evenodd" clip-rule="evenodd" d="M19.9361 43.3876L19.0747 43.8924C18.3836 44.2956 17.6547 44.5369 16.9037 44.6131C16.159 44.6893 15.3954 44.6004 14.638 44.3433C13.8744 44.0829 13.2149 43.6924 12.6658 43.1781C12.1136 42.6605 11.6813 42.0224 11.3721 41.2795L10.5232 39.219C10.2771 38.6189 9.91104 38.1268 9.45666 37.7585C9.22946 37.5744 8.97386 37.422 8.69618 37.2981V50.5089H8.69302V60.0428C8.69302 60.0745 8.69934 60.1063 8.71511 60.1253C8.72773 60.1444 8.75298 60.1634 8.78769 60.1793C8.81609 60.192 8.84449 60.1952 8.87289 60.1888H8.87605C8.89813 60.1856 8.92338 60.1698 8.94547 60.1444L13.6787 55.382C14.029 55.0296 14.597 55.0296 14.9472 55.382L19.6805 60.1444V60.1475C19.7026 60.1698 19.7279 60.1824 19.7563 60.1888C19.7815 60.1952 19.8131 60.1888 19.8415 60.1761H19.8446C19.8762 60.1634 19.8983 60.1444 19.914 60.1221C19.9267 60.1031 19.933 60.0745 19.933 60.0364H19.9361L19.9361 43.3876ZM22.4984 8.04826C26.4144 8.04826 29.9612 9.64519 32.5266 12.2264C35.092 14.8108 36.6792 18.3762 36.6792 22.3162C36.6792 26.2562 35.092 29.8248 32.5266 32.4059C29.9611 34.9935 26.4144 36.5904 22.4984 36.5904C18.5825 36.5904 15.0356 34.9935 12.4703 32.4091C9.90483 29.8279 8.31765 26.2593 8.31765 22.3193C8.31765 18.3792 9.90483 14.8107 12.4703 12.2296C15.0357 9.64519 18.5825 8.04826 22.4984 8.04826ZM31.2583 13.5059C29.0179 11.2517 25.9192 9.85473 22.4984 9.85473C19.0777 9.85473 15.9792 11.2485 13.7385 13.5059C11.4982 15.76 10.1097 18.8778 10.1097 22.3196C10.1097 25.7612 11.4982 28.8789 13.7385 31.1333C15.9789 33.3874 19.0777 34.7844 22.4984 34.7844C25.9192 34.7844 29.0177 33.3907 31.2583 31.1333C33.4987 28.8791 34.8871 25.7613 34.8871 22.3196C34.8871 18.878 33.4987 15.7603 31.2583 13.5059ZM23.3506 11.8867C23.2654 11.62 23.0571 11.3977 22.7731 11.3025C22.3029 11.1501 21.7981 11.4104 21.6466 11.8867L19.5577 18.3952L12.8207 18.3825C12.521 18.3603 12.2181 18.4904 12.0287 18.7508C11.7384 19.154 11.8268 19.7191 12.2275 20.0112L17.737 24.0211L15.6228 30.5233H15.626C15.5408 30.79 15.5786 31.0884 15.7522 31.3297C16.0425 31.7298 16.601 31.8187 17.0018 31.5266L22.4987 27.5008L27.9388 31.4949C28.166 31.6917 28.4879 31.7647 28.7971 31.6663C29.2673 31.5139 29.5229 31.0059 29.3714 30.5297L27.2572 24.0275L32.7667 20.0177V20.0145C32.9907 19.8494 33.1359 19.5859 33.1359 19.2874C33.1359 18.7921 32.7351 18.3889 32.2429 18.3889L25.4396 18.4016L23.3506 11.8867ZM23.9375 19.5762L22.4986 15.0933L21.0598 19.573C20.943 19.935 20.6054 20.1953 20.2078 20.1953L15.525 20.1858L19.3179 22.9479C19.624 23.1702 19.766 23.5766 19.6429 23.9576L18.1882 28.4373L21.9559 25.672C22.262 25.4371 22.6943 25.4244 23.0224 25.6625L26.8059 28.4374L25.3606 23.9893C25.225 23.621 25.3449 23.1924 25.6762 22.948L29.4691 20.1859L24.8305 20.1954C24.4361 20.2176 24.0637 19.9699 23.9375 19.5762ZM38.3327 36.8346V50.5087H38.3358V60.0425C38.3358 60.4394 38.2191 60.8109 38.0076 61.1283C37.7994 61.4395 37.5028 61.6903 37.1367 61.8427C36.7707 61.9982 36.3826 62.0332 36.0165 61.9601H36.0134C35.6474 61.8871 35.3034 61.7062 35.0225 61.4204L30.9236 57.2994L26.8277 61.4236C26.5469 61.7062 26.2029 61.8871 25.8306 61.9633C25.4677 62.0363 25.0827 62.0014 24.7135 61.849H24.7104C24.3443 61.6966 24.0477 61.449 23.8395 61.1315C23.628 60.814 23.5113 60.4394 23.5113 60.0457H23.5144V50.5086H23.5113V42.7428C23.1831 42.6793 22.8423 42.6444 22.4984 42.6444C22.2365 42.6444 21.9777 42.6635 21.7221 42.7016V60.0429H21.7253C21.7253 60.4398 21.6085 60.8112 21.3971 61.1287C21.1888 61.4398 20.8922 61.6906 20.5262 61.843C20.1602 61.9986 19.772 62.0335 19.406 61.9605H19.4029C19.0368 61.8875 18.6929 61.7065 18.412 61.4208L14.3162 57.2998L10.2203 61.4239C9.94265 61.7033 9.59554 61.8875 9.22632 61.9605C8.86029 62.0335 8.47531 61.9986 8.10613 61.8462H8.10298C7.73694 61.6938 7.44033 61.4462 7.23208 61.1287C7.02382 60.8144 6.90707 60.4429 6.90707 60.0429V50.5091H6.90391L6.90075 36.8764L6.43374 36.7939C5.64487 36.6574 4.93485 36.3716 4.31009 35.943C3.6853 35.5144 3.15832 34.9524 2.74182 34.2667C2.32529 33.5777 2.06653 32.8507 1.97818 32.1014C1.88668 31.3521 1.96241 30.5837 2.20222 29.8154L2.86804 27.6882C3.06052 27.0691 3.09839 26.4532 2.98163 25.8785C2.86803 25.3007 2.59666 24.7483 2.18329 24.2562L1.2808 23.183C0.763304 22.5671 0.400452 21.8876 0.195269 21.1575C-0.00991483 20.4273 -0.0540132 19.6589 0.0658899 18.8652C0.185801 18.0715 0.457176 17.3476 0.86739 16.7095C1.2776 16.0745 1.82351 15.5348 2.50191 15.103L4.36997 13.9028C4.90956 13.5567 5.32924 13.1091 5.61012 12.5884C5.891 12.0677 6.03927 11.4708 6.03611 10.8231L6.0298 9.4198C6.02664 8.61337 6.18126 7.85773 6.4905 7.16883L6.51574 7.11803C6.82498 6.44495 7.27622 5.84173 7.86002 5.32424C8.45957 4.79403 9.12852 4.41621 9.85111 4.194C10.5706 3.97175 11.3342 3.9146 12.1294 4.0162L14.3256 4.30512C14.9599 4.38766 15.5658 4.31782 16.1148 4.10193C16.6638 3.88604 17.1593 3.52409 17.5663 3.03199L18.4594 1.95255C18.9737 1.33027 19.5764 0.850835 20.2517 0.523857C20.9271 0.196878 21.6748 0.0190514 22.4795 0H22.5268C23.3283 0.019049 24.0731 0.196846 24.7483 0.523857C25.4236 0.854045 26.0263 1.33028 26.5407 1.95255L27.4337 3.03199C27.8408 3.5241 28.3362 3.88605 28.8853 4.10193C29.4343 4.3178 30.0402 4.38766 30.6744 4.30512L32.8707 4.0162C33.6659 3.91143 34.4295 3.97175 35.1489 4.194C35.8747 4.41624 36.5437 4.79405 37.14 5.32424C37.7396 5.85444 38.1971 6.47358 38.5064 7.16565C38.8156 7.85143 38.9702 8.60703 38.9671 9.41663L38.9607 10.82C38.9607 11.4676 39.1059 12.0645 39.3899 12.5852C39.6707 13.1027 40.0904 13.5504 40.63 13.8996L42.4981 15.0998C43.1765 15.5347 43.7224 16.0745 44.1326 16.7063C44.5428 17.3445 44.8142 18.0652 44.9341 18.862C45.054 19.6557 45.0099 20.4273 44.8047 21.1543C44.5996 21.8845 44.2368 22.564 43.7192 23.1799L42.8167 24.253C42.4002 24.7483 42.132 25.3007 42.0184 25.8754C41.9048 26.4532 41.9395 27.0692 42.132 27.6851L42.7978 29.8123C43.0376 30.5806 43.1133 31.3489 43.0218 32.0982L43.0187 32.1299C42.924 32.8697 42.6684 33.5872 42.2582 34.2666C41.8417 34.9524 41.3147 35.5144 40.6899 35.943C40.0651 36.3684 39.352 36.6573 38.5663 36.7939L38.3327 36.8346ZM24.6411 41.1843C23.969 40.9557 23.2306 40.8414 22.4985 40.8414C21.3941 40.8414 20.2771 41.1017 19.384 41.6256L18.1786 42.3336C17.7053 42.6098 17.2194 42.7717 16.7302 42.8225C16.2348 42.8733 15.7236 42.8098 15.2093 42.6352C14.6949 42.4606 14.2532 42.2002 13.8903 41.8573C13.5306 41.5176 13.2403 41.0922 13.032 40.5874L12.1831 38.5268C11.8234 37.6506 11.2744 36.914 10.577 36.3552C9.87961 35.7932 9.04658 35.4155 8.11566 35.2566L8.00838 35.2376C7.97682 35.2312 7.94211 35.2249 7.9074 35.2185L6.73987 35.0154C6.20028 34.9201 5.72381 34.7328 5.31676 34.4534C4.90969 34.174 4.55944 33.7994 4.27541 33.3295C3.99457 32.866 3.82102 32.3802 3.76422 31.885V31.8818C3.70427 31.3865 3.75476 30.8721 3.91569 30.3515L4.5815 28.2243C4.86549 27.3194 4.91283 26.4019 4.73612 25.5256C4.55941 24.6462 4.16182 23.8175 3.55284 23.0937L2.65036 22.0206C2.3001 21.6015 2.05712 21.1507 1.92144 20.6712C1.78575 20.1918 1.75736 19.6743 1.8394 19.1346C1.92144 18.5917 2.09815 18.1059 2.36952 17.6932C2.6409 17.2741 3.00693 16.9122 3.46451 16.6201L5.33257 15.42C6.13407 14.9056 6.75568 14.2358 7.18172 13.4515C7.60771 12.6673 7.8286 11.7783 7.82545 10.8258L7.81914 9.42251C7.81914 8.87642 7.92011 8.36842 8.12523 7.91124L8.14416 7.86997C8.34611 7.435 8.64904 7.03818 9.04664 6.68259C9.45686 6.31747 9.90179 6.06348 10.3719 5.92061C10.8453 5.77457 11.3596 5.73647 11.8992 5.80632L14.0955 6.09524C15.0358 6.21906 15.9446 6.10794 16.7682 5.7841C17.5949 5.46026 18.3333 4.92053 18.9423 4.18391L19.8353 3.10447C20.1824 2.68538 20.5832 2.3679 21.0313 2.14881C21.4731 1.92975 21.9653 1.81545 22.4986 1.79957C23.0319 1.81545 23.5241 1.93292 23.9659 2.14881C24.414 2.36788 24.8179 2.68854 25.1619 3.10447L26.0549 4.18391C26.6639 4.92049 27.4055 5.46021 28.229 5.7841C29.0558 6.10794 29.9614 6.21906 30.9018 6.09524L33.1012 5.80314C33.6408 5.7333 34.1551 5.77139 34.6284 5.91744C35.0986 6.0603 35.5435 6.31747 35.9537 6.67941C36.3639 7.04135 36.6732 7.45408 36.872 7.90491V7.90808C37.0771 8.36527 37.1812 8.87325 37.178 9.41935L37.1717 10.8227C37.1686 11.7752 37.3926 12.6641 37.8155 13.4483C38.2414 14.2325 38.8663 14.9025 39.6646 15.4168L41.5327 16.6169C41.9902 16.909 42.3562 17.271 42.6277 17.69C42.8959 18.106 43.0757 18.5886 43.1578 19.1314C43.2398 19.6743 43.2114 20.1918 43.0757 20.668C42.9401 21.1474 42.6971 21.6014 42.3468 22.0174L41.4443 23.0905C40.8353 23.8176 40.4346 24.6462 40.2611 25.5225C40.0844 26.4019 40.1348 27.3194 40.4188 28.2211L41.0846 30.3483C41.2487 30.869 41.2992 31.3833 41.2361 31.8786L41.233 31.904C41.1698 32.3929 40.9995 32.8692 40.7218 33.3264C40.4378 33.7962 40.0875 34.1709 39.6804 34.4503C39.2734 34.7297 38.7968 34.917 38.2573 35.0122L36.8815 35.2503C35.9507 35.4123 35.1144 35.7901 34.4202 36.3489C33.7228 36.9108 33.1738 37.6443 32.8109 38.5205L31.962 40.5811C31.7538 41.0859 31.4635 41.5145 31.1037 41.851C30.7377 42.1939 30.2959 42.4543 29.7848 42.6289C29.2673 42.8035 28.7561 42.867 28.2638 42.8162C27.7715 42.7654 27.2856 42.6035 26.8154 42.3273L25.61 41.6193C25.3449 41.4637 25.0609 41.3335 24.7643 41.2224C24.7264 41.2097 24.6853 41.197 24.6411 41.1843ZM25.3069 43.5305V50.5089H25.3038V60.0427H25.3069C25.3069 60.0808 25.3132 60.1094 25.3258 60.1252C25.3385 60.1443 25.3637 60.1633 25.3984 60.1792C25.4268 60.1919 25.4584 60.1951 25.4868 60.1887C25.5089 60.1856 25.5341 60.1697 25.5562 60.1443L30.2895 55.3819C30.6397 55.0295 31.2077 55.0295 31.558 55.3819L36.2913 60.1443V60.1475C36.3133 60.1697 36.3386 60.1824 36.367 60.1887C36.3922 60.1951 36.4238 60.1887 36.4522 60.176H36.4553C36.4869 60.1633 36.509 60.1443 36.5248 60.1221C36.5374 60.103 36.5437 60.0745 36.5437 60.0364L36.5405 50.5082H36.5437V37.2023C36.1713 37.3357 35.8337 37.523 35.5402 37.7611C35.0858 38.1294 34.7198 38.6215 34.4737 39.2216L33.6248 41.2821C33.3188 42.025 32.8833 42.6632 32.3311 43.1807C31.782 43.695 31.1225 44.0887 30.3589 44.3459C29.6015 44.603 28.8411 44.6919 28.0932 44.6157C27.3422 44.5395 26.6133 44.2982 25.9222 43.8919L25.3069 43.5305Z" fill="#FF9400"/>
</svg>
