<svg width="73" height="73" viewBox="0 0 73 73" fill="none" xmlns="http://www.w3.org/2000/svg">
<rect width="72.1042" height="72.1042" rx="36.0521" fill="#FF9400"/>
<path fill-rule="evenodd" clip-rule="evenodd" d="M26.4398 22.4332C26.4398 22.2208 26.5242 22.017 26.6744 21.8667C26.8247 21.7165 27.0284 21.6321 27.2409 21.6321H44.8664C45.0789 21.6321 45.2827 21.7165 45.4329 21.8667C45.5832 22.017 45.6676 22.2208 45.6676 22.4332V23.2344H49.6734C49.8858 23.2344 50.0896 23.3188 50.2399 23.4691C50.3901 23.6193 50.4745 23.8231 50.4745 24.0356V28.8425C50.4745 29.9049 50.0525 30.9238 49.3012 31.675C48.55 32.4263 47.5311 32.8483 46.4687 32.8483H45.1204C44.5475 34.4642 43.5536 35.8979 42.2414 37.0012C40.9292 38.1045 39.3462 38.8376 37.656 39.1246V44.0645H42.4629C42.6754 44.0645 42.8792 44.1489 43.0294 44.2992C43.1797 44.4494 43.2641 44.6532 43.2641 44.8657V49.6726C43.2641 49.8851 43.1797 50.0889 43.0294 50.2391C42.8792 50.3894 42.6754 50.4738 42.4629 50.4738H29.6444C29.4319 50.4738 29.2281 50.3894 29.0779 50.2391C28.9276 50.0889 28.8432 49.8851 28.8432 49.6726V44.8657C28.8432 44.6532 28.9276 44.4494 29.0779 44.2992C29.2281 44.1489 29.4319 44.0645 29.6444 44.0645H34.4513V39.1246C32.7611 38.8376 31.1781 38.1045 29.8659 37.0012C28.5537 35.8979 27.5598 34.4642 26.987 32.8483H25.6386C24.5762 32.8483 23.5573 32.4263 22.8061 31.675C22.0549 30.9238 21.6328 29.9049 21.6328 28.8425V24.0356C21.6328 23.8231 21.7172 23.6193 21.8675 23.4691C22.0177 23.3188 22.2215 23.2344 22.434 23.2344H26.4398V22.4332ZM45.6676 29.6437V24.8367H48.8722V28.8425C48.8722 29.4799 48.619 30.0913 48.1682 30.542C47.7175 30.9928 47.1062 31.246 46.4687 31.246H45.6676V29.6437ZM26.4398 24.8367H23.2351V28.8425C23.2351 29.4799 23.4884 30.0913 23.9391 30.542C24.3898 30.9928 25.0012 31.246 25.6386 31.246H26.4398V24.8367Z" fill="white"/>
</svg>
