<svg width="40" height="43" viewBox="0 0 40 43" fill="none" xmlns="http://www.w3.org/2000/svg">
<circle cx="20" cy="22.0318" r="20" fill="#FF9400"/>
<mask id="mask0_304457_176739" style="mask-type:alpha" maskUnits="userSpaceOnUse" x="0" y="2" width="40" height="41">
<circle cx="20" cy="22.0318" r="20" fill="#C0FBE8"/>
</mask>
<g mask="url(#mask0_304457_176739)">
<path d="M29.3964 24.3197L23.6564 18.5797H7.74404L7.4346 18.1382C6.60578 18.1758 5.94531 18.8596 5.94531 19.6977V47.6134C5.94531 48.4756 6.64428 49.1747 7.50658 49.1747H28.1155C28.9536 49.1747 29.6373 48.5142 29.675 47.6854L29.3964 47.4068C29.3964 46.479 29.3964 25.3618 29.3964 24.3197Z" fill="#1B1782"/>
<path d="M7.43558 18.1381C7.43276 18.2001 7.43377 45.9146 7.43377 46.1259C7.43377 46.9881 8.13281 47.6872 8.99504 47.6872C9.14256 47.6872 29.6153 47.6882 29.676 47.6854C29.6788 47.6229 29.6778 24.7706 29.6778 24.6001L23.2141 18.1363C23.0997 18.1363 7.49812 18.1353 7.43558 18.1381Z" fill="#2B24D1"/>
<path d="M28.2395 19.5799L26.4592 14.8889H10.7527C9.89038 14.8889 9.19141 15.588 9.19141 16.4502V44.3659C9.19141 45.2282 9.89045 45.9272 10.7527 45.9272H29.2106C29.8332 45.9272 30.3705 45.5626 30.6212 45.0355H31.6813V20.5385L28.2395 19.5799Z" fill="#EAF6FF"/>
<path d="M30.7722 20.2852V21.3527V44.366C30.7722 45.2283 30.0732 45.9272 29.2109 45.9272H31.362C32.2243 45.9272 32.9232 45.2282 32.9232 44.366V21.3527L31.6816 20.5385L30.7722 20.2852Z" fill="#D8ECFE"/>
<rect x="17.4688" y="23.4604" width="12.8571" height="1.42857" rx="0.714286" fill="#82AEE3"/>
<rect x="17.4688" y="27.7461" width="12.8571" height="1.42857" rx="0.714286" fill="#82AEE3"/>
<rect x="17.4688" y="32.0318" width="12.8571" height="1.42857" rx="0.714286" fill="#82AEE3"/>
<rect x="15.3242" y="36.3175" width="15" height="1.42857" rx="0.714286" fill="#82AEE3"/>
<path d="M28.0222 21.3527H32.9247L26.4609 14.8889V19.7914C26.4609 20.6536 27.16 21.3527 28.0222 21.3527Z" fill="#B3DAFE"/>
</g>
<g clip-path="url(#clip0_304457_176739)">
<path d="M12.7879 31.0469C12.7879 30.1243 12.0388 29.3764 11.1146 29.3764C10.1905 29.3764 9.44141 30.1243 9.44141 31.0469C9.44141 31.9695 10.1905 32.7174 11.1146 32.7174C12.0388 32.7174 12.7879 31.9695 12.7879 31.0469Z" fill="#F7C92B"/>
<path d="M11.1152 29.3764C10.9461 29.3764 10.7828 29.4017 10.6289 29.4483C11.3158 29.6563 11.8158 30.2931 11.8158 31.0469C11.8158 31.8006 11.3158 32.4375 10.6289 32.6455C10.7828 32.6921 10.9461 32.7174 11.1152 32.7174C12.0394 32.7174 12.7885 31.9695 12.7885 31.0469C12.7885 30.1243 12.0394 29.3764 11.1152 29.3764Z" fill="#F2B51D"/>
<path d="M11.3092 21.2977C10.7718 21.4055 10.2488 21.0581 10.1407 20.5215C10.0327 19.985 10.3809 19.4628 10.9182 19.355C11.4555 19.2472 11.9787 19.5946 12.0867 20.1312C12.1946 20.6677 11.8466 21.1899 11.3092 21.2977Z" fill="#F7C92B"/>
<path d="M12.0868 20.1312C11.9788 19.5946 11.4556 19.2472 10.9183 19.355C10.8683 19.365 10.82 19.3787 10.7734 19.3955C11.0871 19.5102 11.3355 19.7802 11.4061 20.1312C11.5041 20.6177 11.2268 21.0926 10.7735 21.2572C10.9394 21.3178 11.1235 21.335 11.3093 21.2977C11.8467 21.1899 12.1947 20.6677 12.0868 20.1312Z" fill="#F2B51D"/>
<path d="M15.2604 30.7691H6.97179C6.2301 30.7691 5.62891 30.1689 5.62891 29.4285C5.62891 29.0186 5.81474 28.6307 6.1343 28.3733L6.40057 28.1588C7.01648 27.6629 7.37462 26.9154 7.37462 26.1254V24.7165C7.37462 22.6377 9.06246 20.9525 11.1446 20.9525C13.2267 20.9525 14.9146 22.6377 14.9146 24.7165V26.1514C14.9146 26.9265 15.2594 27.6616 15.8557 28.158L16.115 28.3738C16.4244 28.6313 16.6032 29.0128 16.6032 29.415V29.4285C16.6032 30.1689 16.002 30.7691 15.2604 30.7691Z" fill="#F7E249"/>
<path d="M16.1146 28.3719L15.8553 28.1561C15.259 27.6597 14.9143 26.9246 14.9143 26.1495V24.7145C14.9143 22.6358 13.2263 20.9506 11.1443 20.9506C10.7753 20.9506 10.4189 21.0038 10.082 21.1024C11.6469 21.5603 12.7898 23.0041 12.7898 24.7145V26.1495C12.7898 26.9246 13.1346 27.6597 13.7308 28.1561L13.9902 28.3719C14.2996 28.6295 14.4785 29.0109 14.4785 29.4131V29.4266C14.4785 30.167 13.8773 30.7672 13.1356 30.7672H15.2601C16.0017 30.7672 16.6029 30.167 16.6029 29.4266V29.4131C16.6029 29.0109 16.424 28.6295 16.1146 28.3719Z" fill="#F7C92B"/>
</g>
<ellipse cx="14.2575" cy="4.81722" rx="1.30434" ry="1.3138" fill="#56CDAD"/>
<ellipse cx="34.6923" cy="1.75172" rx="1.73913" ry="1.75172" fill="#FFB23F"/>
<ellipse cx="3.8526" cy="9.916" rx="1.70807" ry="1.72044" fill="#3F8CFF"/>
<ellipse cx="37.4868" cy="27.1517" rx="0.869566" ry="0.875876" fill="#F59E00"/>
<ellipse cx="34.5063" cy="12.4498" rx="0.869566" ry="0.87586" fill="#56CDAD"/>
<defs>
<clipPath id="clip0_304457_176739">
<rect width="14.2578" height="14.2857" fill="white" transform="translate(4.60938 18.4604)"/>
</clipPath>
</defs>
</svg>
