<svg width="24" height="24" viewBox="0 0 24 24" fill="none" xmlns="http://www.w3.org/2000/svg">
<g clip-path="url(#clip0_303698_133400)">
<path d="M12 0C5.37258 0 0 5.37258 0 12C0 18.6274 5.37258 24 12 24C18.6274 24 24 18.6274 24 12C24 5.37258 18.6274 0 12 0ZM14.6558 6.87006C16.0817 6.84778 17.3712 7.62298 17.9825 8.94454C18.548 10.6917 18.0748 12.469 17.0775 13.8085C16.4193 14.7169 15.6326 15.5002 14.8283 16.1847C14.0883 16.8734 12.4321 18.2365 11.9932 18.2743C11.6052 18.2002 11.1697 17.7608 10.8617 17.535C9.13102 16.2193 7.26836 14.6201 6.32372 12.8708C5.5317 11.1914 5.53026 9.11354 6.76292 7.826C8.36126 6.38504 10.7707 6.66708 11.9932 8.1725C12.3215 7.7466 12.7253 7.41118 13.2044 7.16716C13.69 6.97336 14.1805 6.8775 14.6558 6.87006Z" fill="#D86E56"/>
</g>
<defs>
<clipPath id="clip0_303698_133400">
<rect width="24" height="24" fill="white"/>
</clipPath>
</defs>
</svg>
