<svg width="24" height="24" viewBox="0 0 24 24" fill="none" xmlns="http://www.w3.org/2000/svg">
<g clip-path="url(#clip0_303698_133393)">
<mask id="mask0_303698_133393" style="mask-type:luminance" maskUnits="userSpaceOnUse" x="0" y="0" width="24" height="24">
<path d="M0 0H24V24H0V0Z" fill="white"/>
<path fill-rule="evenodd" clip-rule="evenodd" d="M6.0012 10.1551C5.75639 10.1551 5.5216 10.2523 5.34849 10.4254C5.17538 10.5985 5.07812 10.8333 5.07812 11.0782V16.1551C5.07812 16.3999 5.17538 16.6347 5.34849 16.8078C5.5216 16.9809 5.75639 17.0782 6.0012 17.0782H8.30889C8.55371 17.0782 8.7885 16.9809 8.96161 16.8078C9.13472 16.6347 9.23197 16.3999 9.23197 16.1551V11.0782C9.23197 10.8333 9.13472 10.5985 8.96161 10.4254C8.7885 10.2523 8.55371 10.1551 8.30889 10.1551H6.0012ZM7.15505 15.6935C7.39986 15.6935 7.63465 15.5963 7.80776 15.4232C7.98087 15.2501 8.07812 15.0153 8.07812 14.7705C8.07812 14.5256 7.98087 14.2909 7.80776 14.1177C7.63465 13.9446 7.39986 13.8474 7.15505 13.8474C6.91023 13.8474 6.67544 13.9446 6.50233 14.1177C6.32922 14.2909 6.23197 14.5256 6.23197 14.7705C6.23197 15.0153 6.32922 15.2501 6.50233 15.4232C6.67544 15.5963 6.91023 15.6935 7.15505 15.6935ZM13.3683 7.07661C13.3502 7.0586 13.328 7.04534 13.3036 7.03803C13.2792 7.03071 13.2533 7.02956 13.2284 7.03468C13.2034 7.0398 13.1801 7.05104 13.1605 7.06738C13.141 7.08371 13.1258 7.10465 13.1163 7.1283L12.9372 8.20369C12.7499 9.32802 12.1656 10.3479 11.2904 11.0782V15.3991L15.1637 16.1745C15.1895 16.1794 15.2147 16.1855 15.2394 16.1929C15.5157 16.2699 15.8096 16.2548 16.0766 16.1499C16.3436 16.045 16.5691 15.8559 16.719 15.6114L16.9194 15.2855L17.3874 14.0505C17.7041 13.2141 17.6982 12.2898 17.3707 11.4575L17.0846 10.8843C16.9754 10.6661 16.8079 10.4825 16.6006 10.3537C16.3933 10.225 16.1544 10.1562 15.9104 10.1551H14.5212C14.4818 10.1551 14.4434 10.1526 14.4058 10.1477C14.2569 10.1666 14.1055 10.1489 13.9649 10.0961C13.8244 10.0433 13.6988 9.95698 13.5991 9.84467C13.4995 9.73236 13.4287 9.59742 13.393 9.45157C13.3572 9.30572 13.3576 9.15335 13.3941 9.00769L13.5326 8.45938C13.5733 8.2943 13.591 8.12439 13.5852 7.95446L13.5723 7.576C13.5661 7.39926 13.5004 7.22979 13.3858 7.09507L13.3683 7.07661ZM10.204 17.0643L14.7704 17.9772C15.4298 18.155 16.129 18.1147 16.7637 17.8625C17.3983 17.6103 17.9344 17.1597 18.292 16.5778L18.5292 16.1938C18.5672 16.1342 18.5981 16.0704 18.6215 16.0037L19.1144 14.7031C19.5988 13.4242 19.5843 12.0099 19.0738 10.7412C19.0636 10.7155 19.0522 10.6902 19.0397 10.6655L18.736 10.0572C18.473 9.53207 18.069 9.09043 17.5694 8.78167C17.0698 8.47292 16.4941 8.30924 15.9067 8.30892H15.4221C15.4332 8.17046 15.4363 8.03107 15.4314 7.89077L15.4184 7.5123C15.3962 6.87846 15.1458 6.27398 14.7132 5.81015L14.6735 5.77138C13.575 4.67107 11.6957 5.19169 11.319 6.7L11.3034 6.77292L11.116 7.9C11.0508 8.29175 10.9064 8.66608 10.6915 9.00004C10.4765 9.334 10.1957 9.62056 9.86613 9.84215C9.73695 9.9259 9.63077 10.0406 9.55725 10.1759C9.48373 10.3112 9.44522 10.4627 9.4452 10.6166V16.1366C9.44083 16.3561 9.51481 16.5699 9.65386 16.7398C9.79292 16.9096 9.98796 17.0244 10.204 17.0634" fill="black"/>
</mask>
<g mask="url(#mask0_303698_133393)">
<path d="M12 24C18.6274 24 24 18.6274 24 12C24 5.37258 18.6274 0 12 0C5.37258 0 0 5.37258 0 12C0 18.6274 5.37258 24 12 24Z" fill="#3691E9"/>
</g>
</g>
<defs>
<clipPath id="clip0_303698_133393">
<rect width="24" height="24" fill="white"/>
</clipPath>
</defs>
</svg>
