<svg width="24" height="32" viewBox="0 0 24 32" fill="none" xmlns="http://www.w3.org/2000/svg">
<g clip-path="url(#clip0_305815_699)">
<path d="M24 32H0V0H24V32Z" stroke="#E5E7EB"/>
<path d="M1 4.71872C1 3.21776 2.21776 2 3.71872 2V4.71872V27.0009L11.0876 21.7391C11.5577 21.3992 12.1977 21.3992 12.6679 21.7391L20.0311 27.0009V4.71872H3.71872V2H20.0311C21.532 2 22.7498 3.21776 22.7498 4.71872V29.6403C22.7498 30.1501 22.4666 30.6146 22.0135 30.8468C21.5603 31.079 21.0166 31.0394 20.6031 30.7448L11.8749 24.5144L3.14666 30.7448C2.73319 31.0394 2.18944 31.079 1.73632 30.8468C1.2832 30.6146 1 30.1501 1 29.6403V4.71872Z" fill="#F77F00"/>
</g>
<defs>
<clipPath id="clip0_305815_699">
<rect width="24" height="32" fill="white"/>
</clipPath>
</defs>
</svg>
